<svg width="24" height="26" viewBox="0 0 24 26" fill="none" xmlns="http://www.w3.org/2000/svg">
<path d="M12.0101 6.70312C11.2468 6.70312 10.5006 6.92947 9.86598 7.35355C9.23131 7.77762 8.73664 8.38037 8.44453 9.08558C8.15243 9.79079 8.076 10.5668 8.22491 11.3154C8.37383 12.0641 8.7414 12.7517 9.28114 13.2915C9.82089 13.8312 10.5086 14.1988 11.2572 14.3477C12.0059 14.4966 12.7818 14.4202 13.4871 14.1281C14.1923 13.836 14.795 13.3413 15.2191 12.7067C15.6432 12.072 15.8695 11.3258 15.8695 10.5625C15.8695 9.53893 15.4629 8.55728 14.7391 7.83351C14.0153 7.10974 13.0337 6.70312 12.0101 6.70312V6.70312ZM12.0101 13.2031C11.4879 13.2031 10.9773 13.0483 10.5431 12.7581C10.1088 12.4679 9.77038 12.0555 9.57051 11.573C9.37065 11.0905 9.31836 10.5596 9.42025 10.0473C9.52214 9.53511 9.77363 9.06459 10.1429 8.6953C10.5122 8.326 10.9827 8.0745 11.495 7.97261C12.0072 7.87072 12.5381 7.92302 13.0207 8.12288C13.5032 8.32274 13.9156 8.6612 14.2057 9.09545C14.4959 9.5297 14.6508 10.0402 14.6508 10.5625C14.6481 11.262 14.369 11.9321 13.8744 12.4267C13.3797 12.9214 12.7096 13.2004 12.0101 13.2031ZM12.0101 1.82812C9.69446 1.83081 7.4744 2.7519 5.83696 4.38933C4.19953 6.02676 3.27844 8.24682 3.27576 10.5625C3.27576 13.7008 4.73826 17.032 7.4906 20.2008C8.73178 21.6408 10.1321 22.9355 11.6648 24.0602C11.7659 24.1316 11.8864 24.1706 12.0101 24.1719C12.1368 24.169 12.2601 24.1302 12.3656 24.0602C13.8913 22.9307 15.2877 21.6364 16.5297 20.2008C19.2922 17.032 20.7445 13.7008 20.7445 10.5625C20.7418 8.24682 19.8207 6.02676 18.1833 4.38933C16.5459 2.7519 14.3258 1.83081 12.0101 1.82812V1.82812ZM12.0101 22.8008C10.4867 21.6227 4.49451 16.6156 4.49451 10.5625C4.49451 8.56923 5.28633 6.6576 6.69578 5.24815C8.10524 3.8387 10.0169 3.04688 12.0101 3.04688C14.0034 3.04688 15.915 3.8387 17.3245 5.24815C18.7339 6.6576 19.5258 8.56923 19.5258 10.5625C19.5258 16.6156 13.5336 21.6227 12.0101 22.8008Z" fill="black"/>
</svg>
