<svg xmlns="http://www.w3.org/2000/svg" width="418.858" height="61.522" viewBox="66.615 77.979 418.858 61.522"><path d="m350.012 85.867 8.99-.527c-51.055-.22-105.254 1.681-153.774-3.18L193.1 79.38c-24.227-2.105-54.677-1.569-79.12-.158-12.227.704-21.366 8.365-21.366 8.365-3.059 1.406-6.09 4.189-3.034 5.558 6.115.643 21.353.616 21.355 3.393 0 .69-3.037.69-6.087.701.002 2.772-9.111 8.327-12.148 8.35-3.051 1.388-21.26 5.687-24.277 7.109-9.072 2.172 18.332 12.272 30.428 14.334 6.068 1.367.011 3.462.02 5.539 6.057-.707 9.088 1.352 15.151.66 0 .69 18.167 1.383 27.283 1.413 0 0 3.034-.687 12.148-.66 3.043.008 3.043-.687 3.045-1.378l-.002 1.386c3.045-1.377 9.127.025 12.178-.66l-.006 1.387c6.08-1.367 12.17.033 18.261-.644l-.003 1.383c3.054.009 6.096.009 6.094.702l-.003 1.386c3.056.695 9.158-.682 9.158.704v-1.389c12.217 0 21.386.676 30.571 1.32 24.492 2.647 55.268.883 82.99-1.533 3.086-.11 6.112-1.606 2.981-2.88 3.079-.12 6.171-.245 9.247-.37 6.162-.267 2.99-2.2 9.147-2.481 24.569-2.918 49.207-4.575 73.972-6.941 24.746-2.369 49.666-5.434 74.39-11.563-12.61 1.856-22.123 2.088-34.396 4.677-.102-.682-.306-2.048-3.393-1.612-18.605 2.04-40.035 5.599-49.516 3.664-3.142-.442-6.386-2.162-15.583-1.464l9.202-.753-.18-2.071c-12.305.359-27.647.773-39.908.74l-.116-2.07-6.101.333c-6.337-4.472 27.183-5.618 42.316-7.705l-.23-2.759-6.068.478-.108-1.38c18.175-1.447 33.289-2.932 51.372-5.238-3.017.37-9.044 1.165-12.067 1.475-.08-.688-.16-1.378-3.17-1.041 12.049-1.334 27.211-2.604 38.931-5.98 2.877-1.154-.46-2.73-9.475-2.008a931.375 931.375 0 0 1-23.918 3.19l-.163-1.376c5.98-.729 15.042-1.192 20.898-2.76 2.874-1.108-6.248-1.218-3.371-2.322 2.97-.423 5.95-.82 8.796-1.994-8.865 1.392-20.674 3.65-29.718 3.97-3.062-.35-6.121-.706-6.27-2.081-14.826 2.28-27.016 1.24-36.237-1.552-3.078-1.11-17.99.6-26.988 1.093Z" fill="#fff6e5" fill-rule="evenodd" data-name="Path 232"/></svg>