<svg width="24" height="24" viewBox="0 0 24 24" fill="none" xmlns="http://www.w3.org/2000/svg">
<g clip-path="url(#clip0_92_106)">
<path d="M14.7621 22.5699L14.7585 22.569C10.9441 21.5416 7.69283 19.0434 5.71767 15.6224C3.74256 12.2014 3.20472 8.13674 4.22207 4.31978C4.50356 3.26958 5.19067 2.37419 6.13229 1.83055C7.07399 1.28685 8.19311 1.13952 9.24344 1.42097L9.24713 1.42193C9.46544 1.47865 9.67765 1.5567 9.88069 1.65496L9.89015 1.65954L9.89979 1.66371C10.0973 1.74927 10.286 1.854 10.4631 1.97641L10.4631 1.97642L10.4654 1.97799C10.5372 2.02708 10.595 2.09408 10.6331 2.17236C10.6711 2.25064 10.6881 2.33749 10.6822 2.42433L10.6817 2.43173L10.6815 2.43914L10.4519 8.58852C10.4519 8.58858 10.4519 8.58864 10.4519 8.58871C10.4486 8.67208 10.4245 8.7533 10.3818 8.82498C10.3391 8.89672 10.2791 8.95661 10.2073 8.9992L10.2072 8.99906L10.1964 9.00582C10.1568 9.03072 10.1531 9.03232 10.1465 9.03519L10.1459 9.03543C10.134 9.04064 10.1022 9.05294 10.0151 9.07646C9.83656 9.12463 9.5096 9.19828 8.82636 9.34962L8.36297 9.45225L8.44135 9.92035C8.85329 12.3807 10.135 14.6113 12.0533 16.2061L12.4186 16.5098L12.7406 16.1605C13.2193 15.641 13.4498 15.3927 13.5825 15.2611C13.6473 15.1967 13.6744 15.1749 13.6853 15.1668L13.6858 15.1665C13.6919 15.162 13.6951 15.1596 13.7366 15.1377L13.7367 15.1378L13.7478 15.1316C13.8206 15.0907 13.9025 15.0686 13.986 15.0675C14.0693 15.0664 14.1516 15.0861 14.2254 15.1248C14.2255 15.1249 14.2256 15.125 14.2258 15.1251L19.6645 18.0001C19.6648 18.0002 19.665 18.0004 19.6652 18.0005C19.7398 18.0404 19.803 18.0986 19.849 18.1696C19.8951 18.2408 19.9224 18.3226 19.9281 18.4072L19.9281 18.4072L19.9286 18.413C19.9463 18.6344 19.9448 18.857 19.924 19.0782C19.9006 19.3029 19.8595 19.5254 19.8009 19.7437C19.5043 20.7838 18.8086 21.6646 17.8654 22.1942C16.9212 22.7243 15.8056 22.8594 14.7621 22.5699Z" stroke="black"/>
</g>
<defs>
<clipPath id="clip0_92_106">
<rect width="24" height="24" fill="white"/>
</clipPath>
</defs>
</svg>
